<?xml version="1.0" encoding="utf-8"?>
<!-- Generator: Adobe Illustrator 16.2.1, SVG Export Plug-In . SVG Version: 6.00 Build 0)  -->
<!DOCTYPE svg PUBLIC "-//W3C//DTD SVG 1.1//EN" "http://www.w3.org/Graphics/SVG/1.1/DTD/svg11.dtd">
<svg version="1.1" id="Layer_1" xmlns="http://www.w3.org/2000/svg" xmlns:xlink="http://www.w3.org/1999/xlink" x="0px" y="0px"
	 width="148.831px" height="40.437px" viewBox="0 0 148.831 40.437" enable-background="new 0 0 148.831 40.437"
	 xml:space="preserve">
<path fill-rule="evenodd" clip-rule="evenodd" fill="#FFFFFF" d="M36.473,25.701c1.245,0.964,2.69,1.847,4.617,1.847
	c2.932,0,3.695-1.768,3.695-4.096V3.056h3.172v16.622c0,1.447,0,3.012-0.081,4.458c-0.161,3.854-2.127,6.103-6.665,6.103
	c-3.131,0-5.42-1.285-6.344-2.288L36.473,25.701z M66.627,19.879c0-4.818-1.405-8.191-5.3-8.191c-3.814,0-5.542,3.212-5.542,7.549
	c0,3.975,0.803,8.671,5.38,8.671C64.98,27.908,66.627,24.256,66.627,19.879z M61.568,9.238c2.771,0,8.231,0.884,8.231,9.958
	c0,7.83-3.894,11.123-8.913,11.123c-5.1,0-8.231-3.454-8.231-10.681C52.654,11.326,57.593,9.238,61.568,9.238z M89.031,28.952V9.801
	h-3.052v11.965c0,2.771-1.848,4.698-4.898,4.698c-4.256,0-4.537-2.329-4.537-5.381V9.801h-3.132v12.126
	c0,4.577,2.209,6.223,5.622,6.584c-1.968,1.285-4.417,3.615-4.417,6.867c0,3.091,1.968,5.059,6.062,5.059
	c4.256,0,6.826-2.049,7.83-5.943C88.87,33.089,89.031,30.72,89.031,28.952z M81.001,38.026c3.653,0,4.938-3.172,4.938-7.547v-3.494
	c-4.818,2.008-8.311,4.176-8.311,7.99C77.628,36.942,78.792,38.026,81.001,38.026z M101.959,9.238
	c-6.103,0-9.313,4.898-9.313,10.841c0,5.982,2.648,10.239,8.913,10.239c3.211,0,5.54-1.446,6.544-2.289l-1.204-2.048
	c-0.763,0.562-2.45,1.848-5.14,1.848c-4.256,0-5.862-3.453-6.023-6.746c0.322,0,0.643,0.041,1.045,0.041
	c3.895,0,11.041-0.964,11.041-6.906C107.821,11.246,105.693,9.238,101.959,9.238z M101.8,11.568c-4.297,0-5.943,4.054-6.064,7.227
	c0.242,0,0.482,0.039,0.805,0.039c2.729,0,8.351-0.641,8.351-4.256C104.891,12.691,103.606,11.568,101.8,11.568z M115.088,29.757
	v-13.09c0-2.409,2.33-4.939,5.421-4.939c3.373,0,4.015,2.409,4.015,5.381v12.648h3.132V16.145c0-4.577-2.248-6.906-6.384-6.906
	c-2.61,0-4.938,1.205-6.464,3.453l-0.361-2.891h-2.689l0.199,3.011v16.945H115.088z M132.273,1.85v22.445
	c0,2.931,0.161,6.023,5.501,6.023c1.605,0,3.371-0.522,4.537-1.325l-0.924-2.088c-0.684,0.4-1.687,0.963-3.052,0.963
	c-1.888,0-2.931-0.843-2.931-3.492V12.492h5.701V9.801h-5.701V1.85H132.273z M15.933,31.866c8.801,0,15.933-7.133,15.933-15.933
	C31.866,7.134,24.734,0,15.933,0C7.134,0,0,7.134,0,15.933C0,24.733,7.134,31.866,15.933,31.866z M13.097,7.403
	c0-0.333,0.269-0.602,0.602-0.602h4.47c0.332,0,0.602,0.27,0.602,0.602v5.694h5.694c0.332,0,0.601,0.269,0.601,0.602v4.47
	c0,0.332-0.269,0.602-0.601,0.602H18.77v5.694c0,0.332-0.27,0.602-0.602,0.602h-4.47c-0.333,0-0.602-0.27-0.602-0.602V18.77H7.403
	c-0.332,0-0.601-0.27-0.601-0.602v-4.47c0-0.333,0.269-0.602,0.601-0.602h5.694V7.403z M144.759,3.684
	c0,1.165,0.932,2.036,2.041,2.036c1.105,0,2.031-0.872,2.031-2.036c0-1.142-0.926-2.015-2.031-2.015
	C145.69,1.669,144.759,2.542,144.759,3.684z M145.126,3.684c0-0.969,0.727-1.716,1.674-1.716c0.938,0,1.663,0.747,1.663,1.716
	c0,0.992-0.726,1.739-1.663,1.739C145.853,5.423,145.126,4.676,145.126,3.684z M146.009,4.875h0.369V3.858h0.391l0.644,1.018h0.396
	l-0.678-1.044c0.353-0.038,0.623-0.217,0.623-0.645c0-0.455-0.266-0.677-0.828-0.677h-0.916V4.875z M146.378,2.807h0.487
	c0.249,0,0.521,0.049,0.521,0.362c0,0.374-0.299,0.39-0.624,0.39h-0.384V2.807z"/>
<g>
</g>
<g>
</g>
<g>
</g>
<g>
</g>
<g>
</g>
<g>
</g>
</svg>
